<?xml version="1.0" standalone="no"?>
<!DOCTYPE svg PUBLIC "-//W3C//DTD SVG 20010904//EN"
 "http://www.w3.org/TR/2001/REC-SVG-20010904/DTD/svg10.dtd">
<svg version="1.0" xmlns="http://www.w3.org/2000/svg"
 width="1500.000000pt" height="1500.000000pt" viewBox="0 0 1500.000000 1500.000000"
 preserveAspectRatio="xMidYMid meet">
<metadata>
Created by potrace 1.11, written by Peter Selinger 2001-2013
</metadata>
<g transform="translate(0.000000,1500.000000) scale(0.100000,-0.100000)"
fill="#000000" stroke="none">
<path d="M5755 14830 c-84 -24 -110 -35 -163 -72 -85 -58 -174 -161 -214 -248
-10 -19 -31 -51 -49 -70 -49 -53 -83 -135 -83 -200 1 -72 27 -121 107 -201 67
-67 104 -129 130 -216 9 -28 21 -61 27 -73 7 -12 8 -26 3 -30 -7 -7 -118 -14
-408 -25 -49 -2 -151 -6 -225 -10 -74 -3 -184 -7 -245 -10 -105 -4 -285 -12
-460 -20 -44 -2 -86 -4 -93 -5 -10 0 -9 -8 6 -32 11 -18 61 -114 112 -213 91
-178 178 -346 300 -580 34 -66 104 -201 155 -300 l92 -180 -33 -100 c-58 -173
-110 -373 -129 -495 -4 -25 -9 -54 -12 -65 -2 -11 -4 -58 -4 -104 1 -145 46
-196 176 -196 39 0 86 3 105 6 51 10 161 53 246 98 80 41 79 41 107 -20 15
-34 19 -36 69 -38 29 -1 69 -4 88 -6 19 -2 80 -6 135 -10 55 -4 110 -8 123
-10 12 -2 73 -7 135 -10 85 -5 115 -11 125 -23 13 -17 16 -52 5 -53 -5 0 -39
-2 -78 -3 -88 -4 -260 -16 -283 -20 -9 -2 -48 -7 -85 -11 -37 -3 -76 -8 -85
-10 -9 -1 -39 -6 -67 -9 -53 -7 -157 -23 -190 -30 -11 -2 -40 -7 -65 -12 -25
-4 -47 -8 -50 -9 -3 -1 -25 -5 -50 -9 -25 -4 -106 -21 -180 -38 -74 -16 -143
-31 -153 -33 -41 -9 -54 -18 -90 -63 -75 -93 -117 -198 -365 -912 -68 -195
-129 -370 -170 -489 l-39 -114 -59 -35 c-117 -71 -239 -147 -244 -152 -3 -3
-36 -28 -75 -55 -132 -93 -355 -325 -557 -580 -173 -219 -218 -299 -218 -391
0 -55 35 -96 96 -113 38 -11 214 -8 232 3 5 3 27 8 48 12 143 22 452 153 660
280 45 27 91 47 117 50 46 6 77 28 77 55 0 10 38 44 98 87 163 116 320 250
463 392 150 150 245 264 316 382 50 83 54 83 68 14 2 -12 4 -22 6 -23 1 -2 2
-6 4 -10 1 -5 4 -15 7 -23 4 -8 8 -24 11 -35 3 -11 22 -74 42 -140 20 -66 38
-127 40 -135 2 -8 33 -121 68 -250 36 -129 62 -238 59 -242 -4 -4 -23 -10 -42
-13 -19 -3 -54 -10 -78 -16 -23 -5 -58 -12 -78 -15 -20 -3 -124 -28 -232 -55
-109 -27 -204 -51 -212 -53 -9 -2 -56 -16 -105 -31 -48 -15 -93 -28 -99 -30
-6 -1 -18 -5 -26 -8 -8 -3 -80 -27 -160 -52 -80 -26 -158 -53 -175 -60 -16 -7
-75 -30 -130 -50 -698 -262 -1383 -681 -1634 -1000 -74 -94 -91 -127 -127
-258 -100 -355 -156 -609 -188 -857 -26 -198 -27 -210 -33 -426 -5 -187 -4
-214 12 -245 58 -115 170 -160 385 -154 69 2 136 6 150 9 14 3 41 9 60 12 275
50 634 182 1015 372 237 118 327 168 700 395 75 45 413 278 525 360 559 414
1072 909 1424 1375 42 56 119 164 170 239 50 75 98 137 106 138 8 2 65 10 125
19 135 21 155 23 230 31 33 3 74 8 90 10 17 2 75 7 130 10 55 4 118 9 140 11
22 3 150 5 285 5 228 1 333 -3 469 -17 30 -3 77 -7 105 -9 85 -8 106 -15 172
-63 l63 -45 -36 -71 c-99 -189 -287 -484 -451 -703 -87 -117 -255 -327 -277
-348 -6 -5 -40 -44 -76 -85 -103 -120 -153 -173 -349 -369 -267 -268 -449
-432 -764 -688 -12 -10 -43 -17 -75 -19 -31 -1 -126 -5 -211 -9 -179 -8 -184
-8 -420 -31 -116 -11 -396 -49 -522 -69 -16 -3 -40 -7 -55 -10 -16 -2 -44 -7
-63 -10 -19 -3 -80 -14 -135 -25 -135 -27 -134 -27 -185 -39 -25 -5 -58 -12
-75 -15 -68 -12 -433 -108 -576 -151 -159 -48 -440 -145 -496 -171 -17 -8 -34
-14 -38 -14 -16 0 -285 -119 -431 -191 -435 -215 -765 -465 -923 -699 -20 -30
-42 -68 -49 -83 -18 -42 -15 -133 8 -207 11 -36 34 -114 51 -175 93 -331 281
-776 443 -1048 25 -43 46 -80 46 -82 0 -9 140 -231 207 -330 92 -134 326 -439
368 -479 42 -39 135 -82 225 -103 79 -18 334 -25 415 -11 22 4 60 10 85 14
411 57 1055 330 1683 711 131 79 475 303 501 324 6 6 73 53 148 107 200 142
493 369 678 525 88 74 146 123 150 127 3 3 43 39 90 80 47 41 90 79 96 85 260
231 683 657 895 899 19 22 51 59 72 82 l39 43 176 -5 c98 -3 191 -6 207 -8 17
-2 64 -7 105 -11 41 -4 82 -9 92 -10 9 -2 38 -7 65 -11 348 -50 661 -165 935
-342 82 -53 112 -86 91 -101 -5 -3 -47 -49 -93 -101 -156 -175 -190 -212 -340
-365 -182 -186 -382 -376 -550 -525 -47 -41 -87 -77 -90 -80 -3 -3 -34 -30
-70 -60 -36 -30 -67 -57 -70 -60 -16 -18 -300 -247 -423 -342 -262 -202 -229
-183 -316 -179 -183 10 -527 3 -706 -13 -16 -2 -66 -6 -110 -10 -44 -4 -91 -9
-105 -11 -14 -2 -47 -6 -75 -9 -46 -6 -109 -15 -145 -21 -8 -1 -35 -6 -60 -9
-25 -4 -79 -14 -120 -21 -41 -8 -91 -17 -110 -20 -19 -4 -96 -20 -170 -36 -74
-17 -142 -32 -150 -34 -132 -28 -606 -174 -720 -222 -8 -3 -17 -7 -20 -8 -79
-19 -488 -207 -665 -304 -116 -64 -310 -186 -370 -233 -178 -137 -285 -248
-335 -346 -28 -56 -32 -72 -28 -123 6 -82 37 -116 194 -217 379 -244 746 -422
1144 -556 189 -63 229 -70 400 -70 189 -1 312 17 520 76 474 134 1072 392
1575 682 294 169 666 411 850 553 6 4 48 37 95 73 145 110 288 225 359 287 43
39 46 39 91 12 183 -111 316 -301 337 -484 10 -85 16 -65 9 31 -11 160 -55
290 -141 419 -29 44 -72 98 -94 120 l-41 39 27 24 c120 102 472 445 628 613
926 989 1569 2183 1735 3219 6 36 13 76 15 90 3 14 7 52 11 85 3 33 7 66 10
74 9 29 19 245 18 426 0 224 -10 354 -40 530 -27 163 -77 377 -101 435 -49
119 109 -155 222 -385 91 -185 170 -380 234 -575 38 -119 98 -333 107 -389 3
-14 12 -55 20 -91 8 -36 17 -81 20 -100 3 -19 7 -41 9 -48 27 -77 26 -645 0
-822 -2 -14 -7 -50 -10 -80 -3 -30 -8 -68 -11 -85 -3 -16 -7 -43 -10 -60 -2
-16 -9 -55 -15 -85 -6 -30 -13 -68 -15 -85 -9 -51 -61 -257 -94 -366 -177
-596 -514 -1215 -959 -1759 -213 -260 -481 -543 -711 -750 -52 -47 -97 -87
-100 -91 -3 -3 -53 -46 -112 -97 -257 -219 -599 -476 -610 -459 -5 8 -8 6 -8
-5 0 -11 -65 -61 -178 -136 -228 -153 -210 -145 -268 -127 -140 41 -422 50
-608 20 -11 -2 -39 -6 -61 -10 -22 -3 -67 -10 -100 -16 -33 -7 -69 -13 -80
-14 -46 -7 -338 -86 -440 -120 -391 -130 -734 -306 -908 -465 -83 -76 -120
-136 -121 -195 0 -36 5 -48 28 -69 45 -38 107 -50 256 -50 133 0 384 10 470
19 126 13 150 16 205 25 33 5 80 12 105 15 238 30 724 235 1180 497 478 275
907 588 1349 983 102 90 424 418 527 535 566 646 959 1333 1170 2048 19 64 39
137 45 162 6 25 13 52 15 60 10 38 64 299 69 335 3 22 8 51 10 65 7 37 13 79
20 140 3 30 8 71 10 90 19 160 25 489 12 655 -13 166 -31 331 -42 385 -3 14
-10 54 -15 91 -24 167 -129 565 -181 684 -4 11 -19 52 -33 91 -13 40 -31 87
-39 105 -8 19 -38 88 -67 154 -103 237 -264 529 -410 745 -20 30 -60 102 -89
159 -29 57 -63 121 -77 142 -13 21 -24 41 -24 44 0 16 -251 380 -280 405 -3 3
-24 27 -45 55 -224 278 -569 587 -945 844 -95 65 -107 77 -131 128 -24 53 -25
59 -12 107 7 27 13 58 13 68 0 15 5 16 33 10 65 -14 229 -8 286 11 230 78 405
345 505 770 33 140 49 226 62 319 6 46 7 47 43 46 82 -2 615 12 619 16 7 7 6
255 -1 262 -3 4 -99 7 -212 6 -113 0 -205 3 -206 7 -8 70 -21 86 -66 85 -21
-1 -149 -5 -284 -9 l-246 -6 -6 38 c-8 49 -49 108 -90 130 -32 16 -164 26
-173 12 -5 -9 -111 -8 -148 1 -17 5 -53 11 -79 15 -27 4 -47 8 -45 10 2 2 92
27 200 54 108 28 200 52 205 53 9 2 63 -27 206 -111 102 -59 158 -83 175 -72
24 14 40 76 37 140 -6 107 -74 188 -178 209 -18 4 -306 7 -642 7 l-610 0 -58
145 c-32 80 -65 159 -72 175 -7 17 -28 66 -45 110 -17 44 -37 94 -45 110 -36
83 -38 95 -31 200 4 57 9 114 11 127 2 13 6 55 10 93 3 39 10 102 15 140 5 39
9 73 10 77 0 4 15 2 33 -3 135 -41 239 -44 311 -10 62 30 102 87 139 195 13
37 16 39 58 41 56 2 71 9 91 43 16 28 17 62 3 145 -4 27 -3 52 2 60 14 17 96
217 92 222 -2 2 -16 6 -31 10 -23 6 -27 3 -33 -24 -8 -36 -18 -45 -45 -36 -18
6 -20 12 -15 48 13 93 25 174 31 211 4 25 38 65 56 66 14 0 50 92 51 134 5
112 -120 174 -383 192 -72 5 -98 12 -72 21 7 3 16 12 21 22 8 15 -1 16 -112
16 l-122 0 -17 -34 c-15 -31 -25 -36 -90 -53 -90 -23 -132 -61 -181 -162 -65
-133 -161 -445 -171 -558 -3 -25 -13 -65 -24 -89 -11 -24 -32 -73 -47 -109
-15 -36 -33 -78 -40 -95 -7 -16 -19 -46 -26 -66 -11 -35 -14 -36 -48 -32 -77
10 -296 -94 -455 -216 -69 -52 -213 -193 -272 -266 -104 -127 -200 -282 -297
-480 l-44 -89 -17 59 c-48 164 -183 559 -227 660 -4 11 -22 57 -40 103 -36 97
-39 69 31 342 23 91 44 176 46 190 3 14 14 59 25 100 11 41 22 83 24 93 2 9
11 45 20 79 8 33 14 63 12 65 -3 2 -49 -6 -103 -18 -55 -12 -109 -23 -122 -25
-13 -3 -76 -16 -140 -30 -155 -34 -152 -33 -187 -40 -16 -3 -59 -12 -95 -20
-36 -9 -78 -18 -95 -20 -16 -3 -45 -9 -63 -14 -38 -10 -47 1 -57 70 -3 25 -8
56 -10 70 -3 14 -7 39 -9 55 -24 150 -33 197 -57 284 -62 232 -210 406 -382
450 -59 15 -214 10 -282 -9z m3995 -976 c0 -2 -5 -15 -11 -31 -10 -26 -12 -27
-19 -8 -14 33 -11 44 10 42 11 -1 20 -2 20 -3z m-684 -541 l36 -18 -7 -60 c-3
-33 -8 -73 -10 -90 -9 -69 -14 -115 -20 -195 -4 -47 -9 -96 -10 -110 -2 -14
-4 -32 -5 -40 0 -8 -23 39 -50 105 -47 111 -50 124 -44 180 4 48 1 67 -14 96
l-19 36 41 56 c23 31 46 56 53 57 7 0 29 -8 49 -17z m-498 -1304 c36 -67 44
-80 139 -226 89 -136 145 -188 209 -198 25 -3 56 -8 67 -11 12 -2 67 -4 123
-5 l101 -1 0 -106 c1 -241 42 -479 123 -701 16 -46 30 -85 30 -87 0 -1 -64 28
-143 66 -157 75 -415 183 -599 250 -65 24 -118 48 -119 54 -1 6 -3 27 -5 46
-9 87 -11 725 -2 815 10 113 26 182 37 169 5 -5 22 -34 39 -65z m1597 -394
c-19 -7 -166 -12 -155 -5 6 4 46 8 88 8 42 1 73 -1 67 -3z m-241 -13 c-7 -4
-14 -18 -15 -32 l-4 -25 -255 -2 c-140 -1 -268 -2 -285 -2 l-30 -1 1 -150 c0
-83 4 -153 7 -156 4 -4 48 -6 99 -5 121 3 356 8 808 16 201 4 409 8 463 9 l99
3 -7 -56 c-8 -73 -32 -201 -52 -276 -8 -33 -17 -71 -20 -85 -9 -50 -72 -227
-110 -311 -109 -234 -253 -368 -437 -405 -34 -7 -128 -6 -171 1 -22 4 -47 8
-55 10 -8 1 -18 18 -22 39 -27 129 -199 289 -475 442 -37 21 -71 43 -75 48
-37 53 -118 347 -143 513 -17 115 -27 363 -16 380 3 6 87 13 186 17 99 3 207
8 240 10 190 13 250 18 254 22 2 2 9 4 15 4 7 0 7 -3 0 -8z m-2794 -106 c14
-2 42 -4 63 -4 l38 -2 -8 -92 c-16 -194 -8 -458 17 -523 5 -14 7 -25 4 -25 -2
0 0 -9 6 -19 8 -17 15 -18 42 -10 49 14 50 13 46 -35 -7 -65 9 -165 32 -203
11 -19 20 -37 20 -40 0 -3 -17 -3 -37 0 -125 20 -566 29 -678 14 -59 -8 -45 7
23 24 85 23 199 115 242 197 20 39 49 131 57 181 8 44 7 166 0 435 l-4 118 56
-7 c31 -4 67 -8 81 -9z m-200 -1071 c47 -3 94 -8 105 -10 11 -3 43 -7 70 -10
81 -8 113 -14 245 -46 153 -37 274 -78 405 -139 91 -42 239 -129 232 -136 -1
-2 -22 1 -45 7 -23 5 -59 12 -80 15 -20 3 -40 8 -43 10 -3 2 -21 6 -40 9 -19
3 -45 7 -59 10 -14 3 -38 7 -55 9 -16 2 -50 7 -75 11 -25 4 -58 9 -75 11 -16
2 -41 6 -55 9 -14 3 -52 7 -85 10 -33 3 -96 10 -140 15 -265 30 -843 33 -1075
5 -14 -1 -61 -6 -104 -10 -43 -4 -86 -8 -95 -10 -9 -1 -45 -6 -81 -10 -36 -4
-68 -9 -72 -11 -3 -2 -46 -6 -95 -9 -48 -3 -100 -8 -115 -10 -40 -6 -35 0 15
18 23 9 56 22 72 28 17 7 32 13 35 14 3 1 22 9 44 18 21 9 40 17 42 17 2 0 93
35 201 79 231 92 261 99 436 107 73 4 133 8 134 9 5 4 270 -3 353 -10z m1445
-140 c17 -4 40 -9 52 -11 12 -2 102 -23 200 -45 98 -23 183 -42 188 -43 6 -1
26 -6 45 -10 23 -6 70 -39 132 -93 99 -86 338 -329 338 -344 0 -4 -21 -30 -46
-59 l-47 -51 -101 103 c-132 134 -193 187 -335 287 -111 79 -191 127 -351 209
-80 40 -136 71 -125 69 11 -3 34 -8 50 -12z m-3645 -108 c0 -38 26 -131 45
-161 20 -33 29 -79 13 -70 -10 6 -9 3 1 -9 11 -14 11 -17 0 -17 -8 -1 -67 -20
-131 -44 -65 -24 -118 -41 -118 -39 0 2 14 29 31 59 57 104 117 229 130 272
15 50 29 55 29 9z m2350 -51 c80 -4 163 -8 185 -10 143 -13 202 -19 220 -22
11 -2 43 -6 70 -9 92 -9 131 -15 270 -40 17 -3 59 -10 94 -15 36 -6 67 -13 70
-15 4 -2 26 -6 50 -10 70 -10 84 -19 154 -97 72 -80 142 -180 187 -268 29 -59
88 -231 95 -284 26 -180 25 -348 -6 -511 -11 -63 -13 -65 -192 -260 -32 -35
-43 -53 -36 -61 18 -22 -9 -26 -59 -10 -69 22 -329 91 -382 101 -14 2 -79 16
-145 29 -66 14 -138 27 -160 31 -23 3 -50 7 -60 9 -42 8 -196 29 -295 41 -157
18 -348 30 -470 30 0 0 9 23 19 51 11 27 31 93 44 145 118 445 26 801 -259
1005 -69 49 -178 105 -242 124 -23 7 -41 15 -39 17 4 3 40 7 167 18 30 3 129
8 220 11 91 4 166 7 167 8 3 2 195 -2 333 -8z m-1334 -138 c138 -67 214 -187
216 -341 1 -45 -11 -157 -17 -167 -2 -4 -6 -17 -9 -31 -9 -53 -68 -196 -117
-287 -57 -107 -176 -292 -188 -292 -8 0 -10 51 -10 340 0 349 0 362 -6 405
-17 125 -65 259 -120 338 -16 22 -15 22 72 43 114 28 103 29 179 -8z m4493
-414 c123 -106 320 -306 407 -414 59 -73 187 -245 211 -285 173 -282 269 -511
338 -800 25 -101 28 -120 41 -210 3 -27 8 -59 10 -69 22 -124 22 -567 -1 -656
-2 -8 -7 -42 -11 -75 -9 -83 -10 -86 -17 -120 -4 -16 -9 -46 -12 -65 -3 -19
-15 -71 -26 -115 -11 -44 -22 -88 -24 -98 -15 -71 -102 -330 -155 -462 -91
-228 -294 -628 -392 -772 -15 -23 -28 -44 -28 -48 0 -8 -196 -301 -245 -366
-24 -31 -48 -66 -54 -77 -6 -11 -17 -26 -23 -34 -7 -7 -26 -31 -43 -53 -16
-22 -35 -47 -41 -55 -128 -162 -180 -226 -189 -232 -5 -4 -27 14 -49 40 -72
86 -279 286 -382 368 -245 197 -577 395 -836 500 -27 10 -48 21 -48 24 0 4 20
34 45 68 130 178 330 493 444 697 65 115 231 446 231 459 0 3 11 29 25 58 128
274 267 760 301 1058 15 131 17 179 18 330 1 226 -9 341 -45 515 -33 164 -68
276 -135 433 l-18 44 45 85 c33 65 68 112 144 192 122 129 198 229 227 298
l21 52 80 -62 c44 -34 128 -103 186 -153z m-5449 171 c-9 -24 -39 -75 -50 -85
-3 -3 -21 -25 -39 -50 -41 -54 -186 -199 -256 -255 -27 -22 -59 -48 -69 -57
-32 -29 -267 -191 -271 -187 -2 2 17 36 41 74 24 39 49 80 56 92 7 12 51 84
97 160 83 136 117 183 132 183 5 0 32 11 61 24 90 39 289 122 305 125 1 1 -2
-10 -7 -24z m-1000 -606 c-33 -94 -60 -173 -60 -175 0 -2 -6 -4 -13 -4 -8 0
-34 -19 -58 -41 -64 -59 -138 -82 -267 -81 -45 1 -72 7 -96 22 -62 37 -55 50
73 143 177 128 452 307 473 307 4 0 -20 -77 -52 -171z m5365 -7999 c15 -1 16
-3 5 -7 -8 -4 -33 -18 -55 -32 -22 -14 -49 -31 -60 -37 -11 -6 -74 -42 -140
-81 -267 -155 -543 -294 -870 -438 -183 -81 -430 -169 -446 -160 -16 10 -10
77 11 120 36 73 191 208 340 295 178 104 372 187 580 250 108 33 159 45 310
75 14 3 57 8 95 11 39 4 71 8 73 9 2 2 121 -1 157 -5z"/>
<path d="M11683 12672 c-56 -86 -184 -283 -285 -437 -330 -502 -359 -546 -364
-559 -3 -8 5 -26 18 -41 l24 -27 274 411 c151 227 280 419 285 429 6 9 56 86
113 170 56 84 102 156 102 160 0 12 -44 52 -56 51 -5 0 -55 -71 -111 -157z"/>
</g>
</svg>
